# xmcd
# 
# Track frame offsets:
#     150
#     41685
#     78497
#     106592
# 
# Disc length: 1828
# 
# Revision: 6
# Processed by: cddbd v1.5.2PL0 Copyright (c) Steve Scherf et al.
# Submitted via: fre:ac v1.0.17
# 
DISCID=24072204
DTITLE=浜崎あゆみ - Ayu Mi-x III (Non-Stop Mega Mix) [CD2]
DYEAR=2001
DGENRE=
TTITLE0=Far Away (Rank 1 Remix)
TTITLE1=Surreal (Dubs Floor Mix Transport 006)
TTITLE2=Scar (Dont Cry Mix)
TTITLE3=Girlish (Tablagen Mix)
EXTD=
EXTT0=
EXTT1=
EXTT2=
EXTT3=
PLAYORDER=
